<svg width="24" height="24" viewBox="0 0 18 18" fill="none" xmlns="http://www.w3.org/2000/svg">
<g filter="url(#filter0_i_108_105)">
<path fill-rule="evenodd" clip-rule="evenodd" d="M9 17C13.4183 17 17 13.4183 17 9C17 4.58172 13.4183 1 9 1C4.58172 1 1 4.58172 1 9C1 13.4183 4.58172 17 9 17ZM10 6C10 5.44772 9.55228 5 9 5C8.44772 5 8 5.44772 8 6V8H6C5.44772 8 5 8.44771 5 9C5 9.55228 5.44772 10 6 10H8V12C8 12.5523 8.44772 13 9 13C9.55228 13 10 12.5523 10 12V10H12C12.5523 10 13 9.55228 13 9C13 8.44772 12.5523 8 12 8H10V6Z" fill="black"/>
</g>
<path fill-rule="evenodd" clip-rule="evenodd" d="M9 17C13.4183 17 17 13.4183 17 9C17 4.58172 13.4183 1 9 1C4.58172 1 1 4.58172 1 9C1 13.4183 4.58172 17 9 17ZM10 6C10 5.44772 9.55228 5 9 5C8.44772 5 8 5.44772 8 6V8H6C5.44772 8 5 8.44771 5 9C5 9.55228 5.44772 10 6 10H8V12C8 12.5523 8.44772 13 9 13C9.55228 13 10 12.5523 10 12V10H12C12.5523 10 13 9.55228 13 9C13 8.44772 12.5523 8 12 8H10V6Z" stroke="#C3C0C0"/>
<defs>
<filter id="filter0_i_108_105" x="0.5" y="0.5" width="17" height="21" filterUnits="userSpaceOnUse" color-interpolation-filters="sRGB">
<feFlood flood-opacity="0" result="BackgroundImageFix"/>
<feBlend mode="normal" in="SourceGraphic" in2="BackgroundImageFix" result="shape"/>
<feColorMatrix in="SourceAlpha" type="matrix" values="0 0 0 0 0 0 0 0 0 0 0 0 0 0 0 0 0 0 127 0" result="hardAlpha"/>
<feOffset dy="4"/>
<feGaussianBlur stdDeviation="2"/>
<feComposite in2="hardAlpha" operator="arithmetic" k2="-1" k3="1"/>
<feColorMatrix type="matrix" values="0 0 0 0 0 0 0 0 0 0 0 0 0 0 0 0 0 0 0.25 0"/>
<feBlend mode="normal" in2="shape" result="effect1_innerShadow_108_105"/>
</filter>
</defs>
</svg>
