<svg width="16" height="18" viewBox="0 0 16 18" fill="none" xmlns="http://www.w3.org/2000/svg">
<path d="M7 1C5.89543 1 5 1.89543 5 3V11C5 12.1046 5.89543 13 7 13H13C14.1046 13 15 12.1046 15 11V5.41421C15 4.88378 14.7893 4.37507 14.4142 4L12 1.58579C11.6249 1.21071 11.1162 1 10.5858 1H7Z" fill="black"/>
<path d="M1 7C1 5.89543 1.89543 5 3 5V15H11C11 16.1046 10.1046 17 9 17H3C1.89543 17 1 16.1046 1 15V7Z" fill="black"/>
<path d="M7 1C5.89543 1 5 1.89543 5 3V11C5 12.1046 5.89543 13 7 13H13C14.1046 13 15 12.1046 15 11V5.41421C15 4.88378 14.7893 4.37507 14.4142 4L12 1.58579C11.6249 1.21071 11.1162 1 10.5858 1H7Z" stroke="#C3C0C0" stroke-linejoin="round"/>
<path d="M1 7C1 5.89543 1.89543 5 3 5V15H11C11 16.1046 10.1046 17 9 17H3C1.89543 17 1 16.1046 1 15V7Z" stroke="#C3C0C0" stroke-linejoin="round"/>
</svg>
