<svg width="16" height="18" viewBox="0 0 16 18" fill="none" xmlns="http://www.w3.org/2000/svg">
<path fill-rule="evenodd" clip-rule="evenodd" d="M7 1C6.62123 1 6.27497 1.214 6.10557 1.55279L5.38197 3H2C1.44772 3 1 3.44772 1 4C1 4.55228 1.44772 5 2 5L2 15C2 16.1046 2.89543 17 4 17H12C13.1046 17 14 16.1046 14 15V5C14.5523 5 15 4.55228 15 4C15 3.44772 14.5523 3 14 3H10.618L9.89443 1.55279C9.72504 1.214 9.37877 1 9 1H7ZM5 7C5 6.44772 5.44772 6 6 6C6.55228 6 7 6.44772 7 7V13C7 13.5523 6.55228 14 6 14C5.44772 14 5 13.5523 5 13V7ZM10 6C9.44771 6 9 6.44772 9 7V13C9 13.5523 9.44771 14 10 14C10.5523 14 11 13.5523 11 13V7C11 6.44772 10.5523 6 10 6Z" fill="black" stroke="#C3C0C0" stroke-linejoin="round"/>
</svg>
