<svg width="18" height="18" viewBox="0 0 18 18" fill="none" xmlns="http://www.w3.org/2000/svg">
<path d="M16.4142 1.58579C15.6332 0.804738 14.3668 0.804738 13.5858 1.58579L6 9.17157V12H8.82842L16.4142 4.41421C17.1953 3.63316 17.1953 2.36683 16.4142 1.58579Z" fill="black"/>
<path fill-rule="evenodd" clip-rule="evenodd" d="M1 5C1 3.89543 1.89543 3 3 3H7C7.55228 3 8 3.44772 8 4C8 4.55228 7.55228 5 7 5H3V15H13V11C13 10.4477 13.4477 10 14 10C14.5523 10 15 10.4477 15 11V15C15 16.1046 14.1046 17 13 17H3C1.89543 17 1 16.1046 1 15V5Z" fill="black"/>
<path d="M16.4142 1.58579C15.6332 0.804738 14.3668 0.804738 13.5858 1.58579L6 9.17157V12H8.82842L16.4142 4.41421C17.1953 3.63316 17.1953 2.36683 16.4142 1.58579Z" stroke="#C3C0C0" stroke-linecap="round" stroke-linejoin="round"/>
<path fill-rule="evenodd" clip-rule="evenodd" d="M1 5C1 3.89543 1.89543 3 3 3H7C7.55228 3 8 3.44772 8 4C8 4.55228 7.55228 5 7 5H3V15H13V11C13 10.4477 13.4477 10 14 10C14.5523 10 15 10.4477 15 11V15C15 16.1046 14.1046 17 13 17H3C1.89543 17 1 16.1046 1 15V5Z" stroke="#C3C0C0" stroke-linecap="round" stroke-linejoin="round"/>
</svg>
