<svg width="110" height="22" viewBox="0 0 411 76" fill="none" xmlns="http://www.w3.org/2000/svg">
<path d="M154.409 55H142.034V20.0909H154.511C158.023 20.0909 161.045 20.7898 163.58 22.1875C166.114 23.5739 168.063 25.5682 169.426 28.1705C170.801 30.7727 171.489 33.8864 171.489 37.5114C171.489 41.1477 170.801 44.2727 169.426 46.8864C168.063 49.5 166.102 51.5057 163.545 52.9034C161 54.3011 157.955 55 154.409 55ZM149.415 48.6761H154.102C156.284 48.6761 158.119 48.2898 159.608 47.517C161.108 46.733 162.233 45.5227 162.983 43.8864C163.744 42.2386 164.125 40.1136 164.125 37.5114C164.125 34.9318 163.744 32.8239 162.983 31.1875C162.233 29.5511 161.114 28.3466 159.625 27.5739C158.136 26.8011 156.301 26.4148 154.119 26.4148H149.415V48.6761ZM188.751 55.5114C186.058 55.5114 183.74 54.9659 181.797 53.875C179.865 52.7727 178.376 51.2159 177.331 49.2045C176.286 47.1818 175.763 44.7898 175.763 42.0284C175.763 39.3352 176.286 36.9716 177.331 34.9375C178.376 32.9034 179.848 31.3182 181.746 30.1818C183.655 29.0455 185.893 28.4773 188.462 28.4773C190.189 28.4773 191.797 28.7557 193.286 29.3125C194.786 29.858 196.092 30.6818 197.206 31.7841C198.331 32.8864 199.206 34.2727 199.831 35.9432C200.456 37.6023 200.768 39.5455 200.768 41.7727V43.767H178.661V39.267H193.933C193.933 38.2216 193.706 37.2955 193.251 36.4886C192.797 35.6818 192.166 35.0511 191.359 34.5966C190.564 34.1307 189.638 33.8977 188.581 33.8977C187.479 33.8977 186.501 34.1534 185.649 34.6648C184.808 35.1648 184.149 35.8409 183.672 36.6932C183.195 37.5341 182.95 38.4716 182.939 39.5057V43.7841C182.939 45.0795 183.178 46.1989 183.655 47.142C184.143 48.0852 184.831 48.8125 185.717 49.3239C186.604 49.8352 187.655 50.0909 188.871 50.0909C189.678 50.0909 190.416 49.9773 191.087 49.75C191.757 49.5227 192.331 49.1818 192.808 48.7273C193.286 48.2727 193.649 47.7159 193.899 47.0568L200.615 47.5C200.274 49.1136 199.575 50.5227 198.518 51.7273C197.473 52.9205 196.121 53.8523 194.462 54.5227C192.814 55.1818 190.911 55.5114 188.751 55.5114ZM217.439 55.5114C214.746 55.5114 212.428 54.9659 210.484 53.875C208.553 52.7727 207.064 51.2159 206.018 49.2045C204.973 47.1818 204.45 44.7898 204.45 42.0284C204.45 39.3352 204.973 36.9716 206.018 34.9375C207.064 32.9034 208.536 31.3182 210.433 30.1818C212.342 29.0455 214.581 28.4773 217.149 28.4773C218.876 28.4773 220.484 28.7557 221.973 29.3125C223.473 29.858 224.78 30.6818 225.893 31.7841C227.018 32.8864 227.893 34.2727 228.518 35.9432C229.143 37.6023 229.456 39.5455 229.456 41.7727V43.767H207.348V39.267H222.621C222.621 38.2216 222.393 37.2955 221.939 36.4886C221.484 35.6818 220.854 35.0511 220.047 34.5966C219.251 34.1307 218.325 33.8977 217.268 33.8977C216.166 33.8977 215.189 34.1534 214.337 34.6648C213.496 35.1648 212.837 35.8409 212.359 36.6932C211.882 37.5341 211.638 38.4716 211.626 39.5057V43.7841C211.626 45.0795 211.865 46.1989 212.342 47.142C212.831 48.0852 213.518 48.8125 214.405 49.3239C215.291 49.8352 216.342 50.0909 217.558 50.0909C218.365 50.0909 219.104 49.9773 219.774 49.75C220.445 49.5227 221.018 49.1818 221.496 48.7273C221.973 48.2727 222.337 47.7159 222.587 47.0568L229.303 47.5C228.962 49.1136 228.263 50.5227 227.206 51.7273C226.161 52.9205 224.808 53.8523 223.149 54.5227C221.501 55.1818 219.598 55.5114 217.439 55.5114ZM234.195 64.8182V28.8182H241.354V33.2159H241.678C241.996 32.5114 242.456 31.7955 243.058 31.0682C243.672 30.3295 244.467 29.7159 245.445 29.2273C246.433 28.7273 247.661 28.4773 249.126 28.4773C251.036 28.4773 252.797 28.9773 254.411 29.9773C256.024 30.9659 257.314 32.4602 258.28 34.4602C259.246 36.4489 259.729 38.9432 259.729 41.9432C259.729 44.8636 259.257 47.3295 258.314 49.3409C257.382 51.3409 256.109 52.858 254.496 53.892C252.893 54.9148 251.098 55.4261 249.109 55.4261C247.7 55.4261 246.501 55.1932 245.513 54.7273C244.536 54.2614 243.734 53.6761 243.109 52.9716C242.484 52.2557 242.007 51.5341 241.678 50.8068H241.456V64.8182H234.195ZM241.303 41.9091C241.303 43.4659 241.518 44.8239 241.95 45.983C242.382 47.142 243.007 48.0455 243.825 48.6932C244.643 49.3295 245.638 49.6477 246.808 49.6477C247.99 49.6477 248.99 49.3239 249.808 48.6761C250.626 48.017 251.246 47.108 251.666 45.9489C252.098 44.7784 252.314 43.4318 252.314 41.9091C252.314 40.3977 252.104 39.0682 251.683 37.9205C251.263 36.7727 250.643 35.875 249.825 35.2273C249.007 34.5795 248.001 34.2557 246.808 34.2557C245.626 34.2557 244.626 34.5682 243.808 35.1932C243.001 35.8182 242.382 36.7045 241.95 37.8523C241.518 39 241.303 40.3523 241.303 41.9091ZM276.399 55.5114C273.751 55.5114 271.462 54.9489 269.53 53.8239C267.609 52.6875 266.126 51.108 265.081 49.0852C264.036 47.0511 263.513 44.6932 263.513 42.0114C263.513 39.3068 264.036 36.9432 265.081 34.9205C266.126 32.8864 267.609 31.3068 269.53 30.1818C271.462 29.0455 273.751 28.4773 276.399 28.4773C279.047 28.4773 281.331 29.0455 283.251 30.1818C285.183 31.3068 286.672 32.8864 287.717 34.9205C288.763 36.9432 289.286 39.3068 289.286 42.0114C289.286 44.6932 288.763 47.0511 287.717 49.0852C286.672 51.108 285.183 52.6875 283.251 53.8239C281.331 54.9489 279.047 55.5114 276.399 55.5114ZM276.433 49.8864C277.638 49.8864 278.643 49.5455 279.45 48.8636C280.257 48.1705 280.865 47.2273 281.274 46.0341C281.695 44.8409 281.905 43.483 281.905 41.9602C281.905 40.4375 281.695 39.0795 281.274 37.8864C280.865 36.6932 280.257 35.75 279.45 35.0568C278.643 34.3636 277.638 34.017 276.433 34.017C275.217 34.017 274.195 34.3636 273.365 35.0568C272.547 35.75 271.928 36.6932 271.507 37.8864C271.098 39.0795 270.893 40.4375 270.893 41.9602C270.893 43.483 271.098 44.8409 271.507 46.0341C271.928 47.2273 272.547 48.1705 273.365 48.8636C274.195 49.5455 275.217 49.8864 276.433 49.8864Z" fill="#00D7BD"/>
<path d="M301.678 55L292.132 20.0909H296.428L303.723 48.5227H304.064L311.496 20.0909H316.268L323.7 48.5227H324.041L331.337 20.0909H335.632L326.087 55H321.723L314.018 27.1818H313.746L306.041 55H301.678ZM340.507 20.0909H346.899L358.013 47.2273H358.422L369.536 20.0909H375.928V55H370.916V29.7386H370.592L360.297 54.9489H356.138L345.842 29.7216H345.518V55H340.507V20.0909ZM402.625 29.2614C402.443 27.6477 401.693 26.3977 400.375 25.5114C399.057 24.6136 397.398 24.1648 395.398 24.1648C393.966 24.1648 392.727 24.392 391.682 24.8466C390.636 25.2898 389.824 25.9034 389.244 26.6875C388.676 27.4602 388.392 28.3409 388.392 29.3295C388.392 30.1591 388.585 30.875 388.972 31.4773C389.369 32.0795 389.886 32.5852 390.523 32.9943C391.17 33.392 391.864 33.7273 392.602 34C393.341 34.2614 394.051 34.4773 394.733 34.6477L398.142 35.5341C399.256 35.8068 400.398 36.1761 401.568 36.642C402.739 37.108 403.824 37.7216 404.824 38.483C405.824 39.2443 406.631 40.1875 407.244 41.3125C407.869 42.4375 408.182 43.7841 408.182 45.3523C408.182 47.3295 407.67 49.0852 406.648 50.6193C405.636 52.1534 404.165 53.3636 402.233 54.25C400.313 55.1364 397.989 55.5795 395.261 55.5795C392.648 55.5795 390.386 55.1648 388.477 54.3352C386.568 53.5057 385.074 52.3295 383.994 50.8068C382.915 49.2727 382.318 47.4545 382.205 45.3523H387.489C387.591 46.6136 388 47.6648 388.716 48.5057C389.443 49.3352 390.369 49.9545 391.494 50.3636C392.631 50.7614 393.875 50.9602 395.227 50.9602C396.716 50.9602 398.04 50.7273 399.199 50.2614C400.369 49.7841 401.29 49.125 401.96 48.2841C402.631 47.4318 402.966 46.4375 402.966 45.3011C402.966 44.267 402.67 43.4205 402.08 42.7614C401.5 42.1023 400.71 41.5568 399.71 41.125C398.722 40.6932 397.602 40.3125 396.352 39.983L392.227 38.858C389.432 38.0966 387.216 36.9773 385.58 35.5C383.955 34.0227 383.142 32.0682 383.142 29.6364C383.142 27.625 383.688 25.8693 384.778 24.3693C385.869 22.8693 387.347 21.7045 389.21 20.875C391.074 20.0341 393.176 19.6136 395.517 19.6136C397.881 19.6136 399.966 20.0284 401.773 20.858C403.591 21.6875 405.023 22.8295 406.068 24.2841C407.114 25.7273 407.659 27.3864 407.705 29.2614H402.625Z" fill="#555555"/>
<path d="M26.9544 76.0003H0V0.00012207H27.1772C34.8254 0.00012207 41.4095 1.52161 46.929 4.56459C52.4485 7.58281 56.6934 11.9246 59.6637 17.59C62.6585 23.2554 64.1561 30.034 64.1561 37.926C64.1561 45.8426 62.6585 52.6462 59.6637 58.3361C56.6934 64.0265 52.4236 68.393 46.8547 71.4358C41.3102 74.479 34.6769 76.0003 26.9544 76.0003ZM16.0762 62.2328H26.2862C31.0384 62.2328 35.0358 61.3915 38.2783 59.7093C41.5455 58.0022 43.9959 55.3677 45.6295 51.8048C47.288 48.2175 48.117 43.5914 48.117 37.926C48.117 32.3101 47.288 27.7209 45.6295 24.1584C43.9959 20.5959 41.5577 17.9735 38.3154 16.2912C35.073 14.6089 31.0756 13.7678 26.3233 13.7678H16.0762V62.2328Z" fill="#555555"/>
<path fill-rule="evenodd" clip-rule="evenodd" d="M80.9102 76.0004L58.4354 34.7318L58.4354 0.000134913L99.7078 76.0004L80.9102 76.0004Z" fill="#00D7BD"/>
<path fill-rule="evenodd" clip-rule="evenodd" d="M58.435 76.0003L58.435 34.7314L35.9599 76.0003L17.1626 76.0003L58.4351 0.000119782L58.435 76.0003L58.435 76.0003ZM58.435 76.0003L58.435 76.0004L35.9599 76.0004L35.9599 76.0003L58.435 76.0003Z" fill="#00D7BD"/>
<path fill-rule="evenodd" clip-rule="evenodd" d="M123 76.0002L123 34.7313L100.525 76.0002L81.7276 76.0002L123 0L123 76.0002L123 76.0002ZM123 76.0002L123 76.0003L100.525 76.0002L100.525 76.0002L123 76.0002Z" fill="#00D7BD"/>
</svg>
