<svg width="17" height="21" viewBox="0 0 17 21" fill="none" xmlns="http://www.w3.org/2000/svg">
<g filter="url(#filter0_i_108_183)">
<path fill-rule="evenodd" clip-rule="evenodd" d="M3.5 1C2.11929 1 1 2.06332 1 3.375V17.625C1 18.9367 2.11929 20 3.5 20H13.5C14.8807 20 16 18.9367 16 17.625V7.42938C16 6.79949 15.7366 6.1954 15.2678 5.75L11 1.69562C10.5312 1.25022 9.89527 1 9.23223 1H3.5ZM9.75 8.125C9.75 7.46916 9.19036 6.9375 8.5 6.9375C7.80964 6.9375 7.25 7.46916 7.25 8.125V12.3831L5.63388 10.8478C5.14573 10.3841 4.35427 10.3841 3.86612 10.8478C3.37796 11.3116 3.37796 12.0634 3.86612 12.5272L7.61612 16.0897C8.10427 16.5534 8.89573 16.5534 9.38388 16.0897L13.1339 12.5272C13.622 12.0634 13.622 11.3116 13.1339 10.8478C12.6457 10.3841 11.8543 10.3841 11.3661 10.8478L9.75 12.3831V8.125Z" fill="black"/>
</g>
<path fill-rule="evenodd" clip-rule="evenodd" d="M3.5 1C2.11929 1 1 2.06332 1 3.375V17.625C1 18.9367 2.11929 20 3.5 20H13.5C14.8807 20 16 18.9367 16 17.625V7.42938C16 6.79949 15.7366 6.1954 15.2678 5.75L11 1.69562C10.5312 1.25022 9.89527 1 9.23223 1H3.5ZM9.75 8.125C9.75 7.46916 9.19036 6.9375 8.5 6.9375C7.80964 6.9375 7.25 7.46916 7.25 8.125V12.3831L5.63388 10.8478C5.14573 10.3841 4.35427 10.3841 3.86612 10.8478C3.37796 11.3116 3.37796 12.0634 3.86612 12.5272L7.61612 16.0897C8.10427 16.5534 8.89573 16.5534 9.38388 16.0897L13.1339 12.5272C13.622 12.0634 13.622 11.3116 13.1339 10.8478C12.6457 10.3841 11.8543 10.3841 11.3661 10.8478L9.75 12.3831V8.125Z" stroke="#C3C0C0" stroke-linejoin="round"/>
<defs>
<filter id="filter0_i_108_183" x="0.5" y="0.5" width="16" height="24" filterUnits="userSpaceOnUse" color-interpolation-filters="sRGB">
<feFlood flood-opacity="0" result="BackgroundImageFix"/>
<feBlend mode="normal" in="SourceGraphic" in2="BackgroundImageFix" result="shape"/>
<feColorMatrix in="SourceAlpha" type="matrix" values="0 0 0 0 0 0 0 0 0 0 0 0 0 0 0 0 0 0 127 0" result="hardAlpha"/>
<feOffset dy="4"/>
<feGaussianBlur stdDeviation="2"/>
<feComposite in2="hardAlpha" operator="arithmetic" k2="-1" k3="1"/>
<feColorMatrix type="matrix" values="0 0 0 0 0 0 0 0 0 0 0 0 0 0 0 0 0 0 0.25 0"/>
<feBlend mode="normal" in2="shape" result="effect1_innerShadow_108_183"/>
</filter>
</defs>
</svg>
